<?xml version="1.0" standalone="no"?>
<!DOCTYPE svg PUBLIC "-//W3C//DTD SVG 20010904//EN"
 "http://www.w3.org/TR/2001/REC-SVG-20010904/DTD/svg10.dtd">
<svg version="1.0" xmlns="http://www.w3.org/2000/svg"
 width="2559.000000pt" height="2523.000000pt" viewBox="0 0 2559.000000 2523.000000"
 preserveAspectRatio="xMidYMid meet">
<metadata>
Created by potrace 1.10, written by Peter Selinger 2001-2011
</metadata>
<g transform="translate(0.000000,2523.000000) scale(0.100000,-0.100000)"
fill="#ff0000" stroke="none">
<path d="M6545 23599 c-104 -4 -203 -12 -218 -18 -16 -6 -67 -11 -115 -11 -57
-1 -96 -6 -112 -15 -14 -8 -48 -14 -76 -15 -28 0 -71 -7 -94 -15 -23 -8 -59
-15 -79 -15 -20 -1 -47 -7 -61 -15 -14 -8 -38 -14 -54 -15 -27 0 -49 -5 -190
-46 -26 -8 -56 -14 -66 -14 -10 0 -31 -6 -47 -14 -15 -8 -55 -22 -88 -31 -33
-10 -75 -24 -93 -31 -18 -8 -40 -14 -50 -14 -9 0 -26 -7 -36 -15 -11 -8 -28
-15 -38 -15 -17 0 -68 -20 -120 -46 -14 -8 -32 -14 -39 -14 -13 0 -126 -50
-159 -71 -8 -5 -22 -12 -30 -15 -8 -3 -22 -10 -30 -15 -8 -5 -22 -12 -30 -15
-25 -10 -84 -36 -100 -45 -8 -5 -48 -25 -88 -46 -40 -20 -78 -43 -84 -50 -6
-7 -19 -13 -29 -13 -10 0 -20 -4 -24 -9 -3 -6 -27 -20 -53 -33 -26 -12 -63
-34 -82 -49 -19 -14 -42 -29 -50 -32 -19 -9 -49 -28 -155 -102 -47 -33 -94
-64 -103 -70 -46 -28 -309 -235 -356 -281 -6 -5 -38 -34 -71 -64 -114 -101
-255 -240 -324 -317 -38 -43 -82 -92 -97 -110 -71 -77 -130 -147 -138 -162 -5
-9 -14 -20 -20 -26 -22 -20 -83 -101 -130 -172 -26 -40 -51 -73 -55 -73 -3 0
-15 -17 -26 -37 -11 -21 -44 -72 -72 -114 -29 -42 -57 -87 -63 -100 -6 -13
-19 -37 -30 -54 -11 -16 -25 -39 -30 -50 -6 -11 -33 -60 -59 -110 -52 -97
-113 -219 -138 -275 -9 -19 -20 -42 -24 -50 -21 -38 -49 -104 -49 -114 0 -7
-7 -21 -15 -32 -8 -10 -15 -31 -15 -45 0 -15 -7 -32 -15 -39 -8 -7 -15 -23
-15 -35 0 -12 -7 -28 -15 -35 -8 -7 -15 -24 -15 -39 0 -14 -7 -35 -15 -45 -8
-11 -15 -30 -15 -42 0 -12 -6 -35 -14 -51 -21 -43 -38 -94 -44 -133 -2 -19
-11 -44 -18 -55 -8 -11 -14 -31 -14 -44 0 -14 -6 -43 -14 -66 -31 -89 -46
-149 -46 -184 0 -20 -6 -43 -12 -49 -7 -7 -16 -41 -19 -75 -4 -34 -12 -84 -19
-112 -28 -126 -33 -153 -41 -248 -4 -56 -12 -131 -18 -167 -12 -81 -13 -671
-1 -840 13 -176 29 -311 40 -338 6 -13 10 -42 10 -65 0 -23 7 -69 15 -102 8
-33 14 -76 15 -95 0 -20 6 -44 14 -55 8 -11 16 -43 18 -70 3 -28 10 -65 16
-82 7 -18 17 -48 23 -65 7 -18 14 -52 16 -75 3 -23 11 -47 19 -54 8 -6 14 -21
14 -32 0 -33 37 -152 75 -242 7 -16 21 -50 30 -75 9 -25 23 -58 31 -73 8 -16
14 -39 14 -52 0 -12 7 -28 15 -35 8 -7 15 -21 15 -30 0 -10 8 -33 17 -52 9
-18 22 -45 30 -60 7 -14 13 -33 13 -41 0 -8 7 -20 15 -27 8 -7 15 -18 15 -26
0 -7 13 -36 30 -64 16 -28 30 -57 30 -64 0 -8 7 -19 15 -26 8 -7 15 -21 15
-31 0 -11 4 -19 9 -19 5 0 14 -12 20 -27 6 -16 20 -41 30 -58 11 -16 30 -50
42 -75 12 -25 29 -49 36 -53 7 -4 13 -14 13 -22 0 -7 19 -42 42 -77 48 -71 64
-96 74 -118 4 -8 20 -31 36 -51 15 -20 28 -41 28 -46 0 -5 14 -22 30 -38 17
-16 30 -33 30 -38 0 -9 141 -190 193 -247 18 -19 43 -50 56 -70 13 -19 47 -60
76 -90 29 -30 93 -98 141 -150 49 -52 132 -132 184 -179 52 -46 127 -112 165
-147 89 -79 121 -104 133 -104 6 0 76 -48 157 -107 222 -164 264 -193 280
-193 9 0 18 -7 21 -15 4 -8 11 -15 16 -15 6 0 29 -13 52 -28 22 -15 48 -31 56
-35 8 -4 29 -16 45 -27 17 -10 53 -31 80 -46 78 -41 96 -51 108 -63 6 -6 19
-11 28 -11 9 0 22 -7 29 -15 7 -8 20 -15 30 -15 9 0 37 -11 61 -25 24 -14 51
-27 59 -31 8 -3 22 -10 30 -15 8 -5 22 -12 30 -15 8 -3 31 -12 50 -21 43 -18
95 -41 135 -58 17 -6 47 -20 68 -29 21 -9 46 -16 55 -16 10 0 23 -5 29 -11 6
-6 26 -14 44 -19 41 -10 93 -28 134 -45 17 -8 41 -16 55 -18 24 -5 42 -10 120
-37 19 -7 53 -15 75 -19 22 -4 56 -13 75 -19 95 -31 142 -42 172 -42 18 0 46
-7 62 -15 15 -8 40 -15 55 -15 24 0 155 -18 301 -41 36 -6 124 -15 195 -19 72
-5 162 -13 200 -19 80 -13 392 -8 505 8 41 5 116 10 167 11 51 0 118 7 150 15
31 8 74 15 95 15 20 0 63 7 95 15 31 8 74 15 94 15 20 0 53 7 72 15 20 8 53
15 74 15 21 1 49 7 63 15 14 8 43 14 65 15 23 0 46 5 53 12 6 6 33 15 59 19
27 4 62 11 78 17 17 6 46 16 65 22 19 7 49 14 65 17 17 2 44 10 60 18 49 21
98 37 130 42 17 3 35 11 40 17 6 7 21 15 35 18 51 12 125 41 218 87 34 17 68
31 75 31 6 0 53 20 102 44 50 24 110 54 135 66 45 21 64 31 98 50 9 6 24 13
32 17 8 4 33 18 55 32 22 14 59 35 83 48 23 12 70 41 103 63 33 22 62 40 64
40 5 0 96 62 137 93 19 15 38 27 42 27 7 0 39 24 229 173 34 27 78 63 97 81
19 18 42 36 51 42 24 13 221 197 298 278 36 38 92 96 125 130 53 55 85 93 212
250 23 28 53 64 68 79 14 15 26 31 26 34 0 3 14 22 30 43 17 21 30 41 30 45 0
3 19 32 43 63 58 77 114 164 155 242 13 25 32 54 42 65 15 17 42 64 111 196 6
13 16 31 21 39 4 8 13 26 18 40 6 14 14 32 18 40 22 40 41 78 55 110 8 19 29
64 46 100 17 36 31 71 31 78 0 8 6 26 14 40 8 15 21 47 31 72 9 25 23 59 30
75 7 17 16 41 18 55 3 14 15 50 27 80 12 30 26 74 31 97 4 23 12 50 17 60 18
34 35 88 39 123 3 19 11 49 19 67 8 17 14 47 14 67 0 20 7 53 15 73 11 25 15
64 14 122 -2 88 19 202 47 253 7 14 14 40 14 58 0 17 5 40 10 51 6 10 13 67
15 125 3 58 10 124 15 147 17 70 24 521 10 607 -7 41 -15 138 -19 215 -4 80
-12 149 -19 162 -6 12 -12 46 -12 75 -1 29 -5 73 -11 98 -6 25 -14 74 -19 109
-6 36 -14 69 -20 75 -5 5 -10 33 -10 61 0 27 -7 63 -15 79 -8 15 -15 40 -15
55 0 14 -7 47 -15 74 -8 26 -22 68 -30 95 -8 26 -15 56 -15 67 -1 11 -7 29
-15 39 -8 11 -15 28 -15 39 0 29 -27 110 -74 220 -9 21 -16 46 -16 55 0 10 -7
27 -15 38 -8 10 -15 28 -15 39 0 11 -7 29 -15 39 -8 11 -15 27 -15 37 0 9 -7
22 -15 29 -8 7 -15 19 -15 26 0 8 -13 43 -30 77 -16 35 -30 69 -30 74 0 6 -7
16 -15 23 -8 7 -15 20 -15 29 0 23 -164 343 -195 381 -6 8 -15 22 -19 30 -3 8
-15 29 -26 45 -11 17 -23 36 -26 44 -4 7 -18 25 -31 39 -14 15 -36 50 -50 79
-13 29 -29 53 -34 53 -5 0 -9 5 -9 11 0 5 -27 46 -60 89 -33 43 -60 83 -60 88
0 5 -7 16 -16 23 -9 8 -42 47 -74 89 -85 111 -280 322 -442 475 -170 162 -296
272 -403 353 -17 12 -53 40 -82 62 -29 22 -55 40 -59 40 -3 0 -26 18 -50 39
-25 22 -76 59 -115 83 -39 23 -82 51 -97 60 -15 10 -34 21 -42 24 -8 4 -22 13
-30 19 -8 7 -42 27 -75 45 -33 18 -67 39 -76 46 -8 8 -23 14 -32 14 -9 0 -20
6 -24 13 -10 15 -375 197 -396 197 -8 0 -20 7 -27 15 -7 8 -18 15 -26 15 -14
0 -66 20 -117 46 -16 8 -36 14 -45 14 -9 0 -26 7 -36 15 -11 8 -28 15 -38 15
-17 0 -65 18 -121 46 -16 8 -41 14 -56 14 -15 0 -32 5 -39 12 -14 14 -87 36
-157 47 -49 8 -88 20 -153 47 -18 8 -43 14 -56 14 -13 0 -40 7 -59 15 -20 8
-57 15 -81 15 -25 0 -63 6 -83 14 -21 8 -68 17 -105 20 -38 3 -77 10 -87 16
-11 5 -47 10 -80 10 -34 0 -100 7 -148 15 -103 17 -518 24 -808 14z m660 -99
c247 -22 442 -46 490 -60 17 -5 59 -14 95 -19 170 -26 604 -146 725 -200 11
-5 47 -19 80 -30 107 -35 229 -89 455 -199 109 -54 315 -168 390 -216 19 -13
67 -43 105 -67 67 -42 166 -112 286 -202 31 -23 83 -62 115 -86 214 -161 616
-563 789 -791 22 -29 55 -70 73 -93 35 -42 160 -231 284 -427 47 -74 109 -185
135 -240 12 -25 44 -92 71 -150 27 -58 64 -139 82 -180 18 -41 38 -88 45 -105
44 -100 55 -129 55 -144 0 -9 4 -21 9 -26 23 -25 145 -426 187 -615 9 -41 23
-100 30 -130 8 -30 14 -64 14 -77 0 -12 6 -58 14 -100 32 -171 52 -399 62
-673 5 -152 -13 -604 -25 -626 -3 -6 -45 -43 -93 -83 -47 -39 -88 -74 -90 -79
-7 -17 -250 -192 -267 -192 -4 0 -17 -13 -28 -28 -12 -16 -43 -37 -70 -47 -26
-10 -68 -30 -93 -44 -50 -29 -79 -45 -137 -78 -22 -12 -46 -29 -53 -38 -8 -9
-35 -27 -60 -40 -26 -13 -87 -51 -137 -84 -68 -45 -100 -61 -126 -61 -19 0
-40 -7 -47 -15 -6 -8 -22 -17 -33 -21 -12 -3 -51 -20 -87 -36 -36 -17 -74 -34
-85 -38 -11 -5 -49 -22 -84 -39 -35 -17 -71 -31 -79 -31 -16 0 -68 -22 -152
-65 -25 -12 -67 -28 -94 -34 -27 -7 -66 -21 -87 -31 -21 -11 -47 -20 -57 -20
-11 0 -46 -12 -78 -27 -33 -15 -79 -28 -103 -29 -24 -2 -54 -11 -68 -20 -23
-14 -48 -20 -173 -41 -19 -3 -40 -10 -47 -15 -7 -5 -59 -17 -115 -25 -57 -8
-125 -18 -153 -22 -27 -4 -60 -12 -72 -19 -12 -7 -48 -12 -81 -12 -33 0 -77
-6 -98 -14 -22 -7 -74 -17 -116 -20 -74 -7 -78 -9 -78 -32 0 -29 -15 -31 -29
-5 -10 18 -22 19 -183 15 -449 -11 -434 -9 -421 -64 9 -40 12 -40 51 -18 31
18 58 22 167 25 72 2 141 8 155 14 30 11 170 5 220 -10 41 -13 88 -1 116 30
15 17 26 19 69 14 37 -5 62 -2 90 10 29 11 54 14 92 9 35 -4 58 -2 67 5 8 7
45 16 83 21 122 16 184 28 196 38 7 5 26 12 42 15 57 10 280 67 305 79 14 6
37 10 51 9 14 -1 31 5 39 13 7 9 18 16 25 16 7 0 39 14 70 30 33 17 73 30 94
30 20 0 47 7 61 15 14 8 32 17 40 21 8 3 30 13 48 21 18 8 41 12 51 8 11 -3
25 3 36 15 10 11 28 20 40 20 11 0 30 7 41 15 10 8 27 15 37 15 9 0 25 4 35
10 9 5 40 19 67 30 28 11 58 25 67 30 10 6 27 10 39 10 12 0 37 14 56 30 21
19 45 30 63 30 16 0 32 5 35 10 3 6 17 10 31 10 14 0 24 6 24 14 0 15 58 56
79 56 7 0 18 6 26 13 7 8 39 22 72 32 32 10 63 26 70 35 7 10 27 25 45 34 18
9 47 26 63 36 17 11 39 24 50 30 11 6 34 19 50 30 17 11 35 22 40 24 6 2 17 7
25 10 16 7 32 17 136 87 38 26 88 57 111 70 24 13 43 29 43 34 0 6 23 26 50
45 28 19 66 49 84 65 92 82 124 105 129 91 3 -8 -17 -35 -49 -65 -30 -28 -54
-55 -54 -60 0 -5 -7 -12 -16 -15 -15 -6 -15 -9 5 -29 22 -25 27 -47 12 -62 -5
-6 -11 -26 -13 -45 -4 -45 24 -50 32 -5 10 54 22 8 14 -53 -7 -60 -18 -76 -74
-108 -19 -10 -55 -37 -81 -59 -25 -22 -56 -47 -69 -55 -13 -8 -38 -30 -54 -47
-16 -18 -36 -33 -43 -33 -15 0 -17 -16 -3 -25 17 -11 11 -25 -16 -35 -19 -8
-31 -7 -41 1 -11 9 -18 7 -36 -10 -13 -11 -26 -21 -30 -21 -14 0 -57 -48 -57
-64 0 -13 -5 -16 -20 -11 -27 8 -58 -10 -62 -37 -2 -18 -9 -22 -27 -20 -13 1
-38 -8 -55 -21 -17 -13 -38 -27 -46 -30 -8 -4 -28 -16 -45 -27 -16 -11 -40
-24 -52 -29 -11 -5 -24 -15 -28 -20 -3 -6 -15 -11 -27 -11 -11 0 -37 -13 -57
-29 -20 -15 -69 -43 -108 -61 -40 -19 -73 -37 -73 -41 0 -4 -15 -10 -32 -14
-39 -8 -115 -43 -124 -56 -3 -5 -18 -9 -33 -9 -16 0 -34 -7 -41 -15 -7 -8 -22
-15 -34 -15 -11 -1 -39 -12 -61 -25 -22 -14 -50 -29 -62 -34 -11 -5 -24 -15
-28 -20 -3 -6 -22 -11 -42 -11 -19 0 -48 -9 -64 -21 -16 -11 -34 -17 -40 -14
-6 4 -16 0 -22 -8 -7 -8 -29 -18 -49 -21 -21 -3 -54 -9 -73 -12 -40 -7 -49 10
-10 20 14 4 25 11 25 16 0 6 10 10 23 10 12 0 35 7 51 15 15 8 45 15 65 15 24
0 42 7 54 20 9 11 23 20 31 20 8 0 16 7 20 15 3 9 18 15 36 15 32 0 41 17 14
27 -9 3 -43 -8 -78 -25 -33 -18 -76 -35 -94 -38 -18 -4 -35 -11 -38 -15 -3 -5
-13 -9 -22 -9 -9 -1 -35 -9 -57 -20 -22 -11 -48 -19 -57 -20 -9 0 -19 -4 -22
-9 -3 -4 -24 -11 -46 -14 -22 -3 -48 -11 -57 -18 -18 -16 -76 -39 -115 -46
-39 -7 -35 -23 6 -23 21 0 36 6 40 15 3 10 19 15 45 15 22 0 42 4 45 9 8 12
63 19 78 10 9 -6 7 -10 -7 -14 -11 -3 -33 -13 -50 -20 -16 -8 -43 -17 -59 -21
-16 -4 -41 -13 -55 -20 -14 -8 -35 -14 -46 -14 -11 0 -29 -7 -39 -15 -11 -8
-37 -15 -59 -15 -21 0 -45 -7 -53 -15 -20 -19 -61 -19 -98 0 -42 22 -106 18
-106 -7 0 -7 19 -8 51 -4 63 9 65 -13 1 -29 -22 -5 -44 -13 -48 -17 -4 -5 -15
-8 -25 -8 -10 0 -40 -7 -66 -17 -26 -9 -58 -16 -70 -15 -13 1 -46 -7 -73 -18
-28 -11 -66 -20 -85 -20 -19 0 -36 -4 -39 -9 -3 -5 -32 -12 -63 -16 -32 -4
-70 -13 -85 -21 -15 -8 -42 -14 -61 -14 -19 0 -56 -7 -83 -15 -27 -8 -76 -15
-109 -15 -33 0 -80 -6 -105 -14 -25 -7 -64 -14 -87 -14 -24 0 -49 -4 -55 -9
-7 -4 -110 -9 -229 -9 -119 -1 -274 -5 -345 -10 -71 -4 -142 -8 -157 -8 -18
-1 -36 -10 -48 -26 -10 -14 -25 -32 -31 -40 -16 -18 -29 -41 -63 -110 -15 -30
-31 -57 -34 -60 -4 -3 -13 -20 -20 -38 -8 -18 -26 -40 -41 -48 -15 -9 -35 -33
-46 -52 -24 -45 -110 -162 -163 -222 -79 -88 -93 -101 -134 -120 -23 -11 -56
-34 -74 -50 -31 -29 -73 -41 -73 -20 0 6 11 10 25 10 18 0 25 5 25 20 0 11 -5
20 -10 20 -6 0 -27 -9 -47 -20 -21 -11 -46 -20 -56 -20 -10 0 -20 -7 -23 -15
-4 -9 -19 -15 -35 -15 -16 0 -29 -4 -29 -10 0 -5 7 -10 16 -10 23 0 13 -34
-11 -38 -11 -2 -30 -13 -42 -24 -13 -12 -30 -18 -41 -16 -11 3 -28 0 -38 -6
-47 -27 -336 -54 -394 -37 -19 6 -102 15 -185 21 -188 12 -324 27 -350 38 -11
5 -53 20 -94 32 -41 13 -92 34 -115 46 -23 13 -48 27 -56 30 -59 25 -100 47
-100 54 0 4 -19 15 -42 25 -24 9 -62 30 -86 46 -24 16 -48 29 -55 29 -11 0
-197 178 -278 266 -63 68 -126 149 -150 194 -13 24 -30 50 -36 58 -7 7 -13 18
-13 23 0 5 -13 31 -30 57 -16 27 -30 57 -30 66 0 9 -4 16 -10 16 -5 0 -10 8
-10 19 0 10 -8 29 -19 42 -10 13 -28 46 -40 72 -12 26 -30 50 -39 53 -9 3 -29
12 -44 20 -14 8 -35 14 -47 14 -11 0 -25 9 -31 20 -9 17 -14 18 -30 8 -16 -10
-24 -9 -47 8 -15 12 -47 23 -71 26 -23 4 -58 18 -76 32 -19 14 -56 33 -83 42
-26 9 -75 29 -109 45 -34 16 -66 29 -73 29 -15 0 -180 87 -202 106 -8 8 -21
14 -27 14 -6 0 -17 6 -24 13 -23 21 -67 47 -82 47 -7 0 -16 7 -20 15 -3 8 -12
15 -20 15 -18 0 -94 38 -101 50 -3 5 -18 11 -34 15 -16 3 -37 17 -45 31 -9 13
-24 24 -32 24 -20 0 -87 52 -132 103 -19 20 -39 37 -46 37 -16 0 -89 39 -101
54 -6 7 -37 28 -70 47 -63 34 -119 74 -170 120 -16 15 -50 38 -75 50 -25 13
-63 41 -86 63 -23 23 -94 93 -158 156 -64 63 -131 133 -149 155 -18 21 -66 80
-107 130 -88 106 -101 133 -109 240 -3 44 -12 90 -19 102 -13 24 -16 79 -4 86
11 8 44 -23 77 -72 34 -50 80 -99 182 -191 39 -36 102 -93 140 -127 37 -34 84
-74 105 -90 20 -15 69 -53 110 -84 40 -31 83 -65 95 -76 12 -10 38 -28 57 -38
20 -11 36 -23 36 -27 0 -5 6 -8 13 -8 7 0 35 -15 62 -33 79 -53 288 -157 316
-157 7 0 20 -6 28 -14 9 -8 54 -34 101 -58 47 -24 103 -55 125 -69 22 -14 63
-34 90 -44 28 -10 67 -31 87 -47 20 -15 48 -28 62 -28 14 0 40 -6 58 -14 51
-21 99 -37 138 -46 38 -9 95 -28 121 -41 9 -4 38 -11 65 -15 27 -4 58 -13 69
-20 11 -8 30 -14 43 -14 13 0 32 -5 43 -11 36 -19 220 -48 295 -47 64 2 77 5
86 22 6 11 22 31 35 45 21 23 23 32 18 79 -5 43 -4 52 9 52 20 0 51 66 48 102
-2 25 1 28 27 28 23 0 34 8 50 36 12 20 19 44 16 55 -4 11 2 27 15 41 68 75
150 185 150 203 0 12 5 15 21 10 12 -4 24 -3 28 1 18 26 102 84 120 84 12 0
21 4 21 10 0 15 58 70 74 70 9 0 20 9 26 20 6 12 21 20 35 20 14 0 47 14 73
30 27 17 57 30 66 30 9 0 27 6 39 14 39 24 232 39 502 40 216 0 274 -3 340
-18 44 -10 92 -25 107 -32 15 -8 36 -14 47 -14 11 0 34 -8 53 -17 18 -9 45
-22 60 -30 14 -7 33 -13 41 -13 20 0 125 -57 151 -82 11 -11 37 -31 56 -43 19
-13 55 -42 79 -64 25 -23 48 -41 52 -41 4 0 11 -9 14 -20 3 -11 12 -20 20 -20
7 0 21 -18 31 -40 10 -22 21 -40 26 -40 4 0 22 -17 40 -37 18 -20 42 -46 53
-57 11 -12 34 -41 50 -66 17 -25 49 -71 72 -104 24 -32 43 -63 43 -70 0 -6 11
-33 25 -61 13 -27 25 -57 25 -66 0 -9 11 -29 25 -45 14 -16 23 -35 20 -42 -2
-7 -1 -20 4 -30 5 -9 19 -44 31 -77 12 -33 26 -67 31 -75 5 -8 12 -23 15 -32
5 -13 13 -16 30 -12 14 4 34 0 47 -9 16 -10 38 -13 69 -10 37 4 52 1 73 -16
25 -19 29 -20 57 -5 24 12 39 14 69 6 35 -9 39 -8 39 8 0 29 -39 50 -95 51
-27 0 -97 6 -155 12 -92 11 -105 15 -108 32 -4 23 -26 78 -49 119 -9 16 -15
46 -15 67 1 22 -4 42 -13 49 -8 7 -15 25 -15 40 0 15 -9 35 -21 46 -11 10 -32
43 -47 74 -14 30 -38 73 -53 95 -14 22 -49 76 -78 119 -29 44 -78 109 -109
144 -31 35 -66 76 -76 91 -30 41 -108 104 -226 182 -41 27 -85 56 -97 65 -37
27 -228 92 -353 121 -196 45 -704 60 -814 23 -21 -7 -51 -10 -67 -6 -43 8
-171 -35 -214 -73 -22 -19 -47 -31 -65 -31 -16 0 -41 -11 -58 -25 -17 -14 -34
-25 -38 -25 -5 0 -37 -19 -71 -43 -61 -42 -94 -76 -106 -110 -4 -11 -16 -21
-27 -24 -11 -3 -20 -9 -20 -14 0 -4 -23 -36 -50 -70 -28 -34 -50 -67 -50 -73
0 -6 -18 -30 -40 -54 -22 -24 -40 -46 -40 -51 0 -4 -10 -19 -21 -32 -23 -26
-79 -140 -79 -161 0 -8 -9 -30 -20 -50 -11 -21 -23 -57 -26 -80 -11 -71 -35
-84 -97 -51 -18 10 -58 18 -92 19 -33 0 -67 4 -75 7 -43 18 -108 39 -130 44
-14 2 -38 11 -55 18 -16 7 -61 21 -100 30 -38 9 -86 21 -105 26 -19 6 -53 15
-75 20 -21 6 -44 14 -50 18 -5 5 -21 12 -35 16 -14 4 -39 18 -57 31 -17 13
-44 24 -60 24 -64 0 -716 353 -823 445 -14 12 -45 33 -70 48 -46 26 -176 131
-220 178 -14 14 -36 30 -49 34 -13 4 -45 27 -70 50 -25 24 -76 69 -112 102
-111 98 -199 210 -199 252 0 11 -18 35 -41 53 l-40 34 -6 184 c-3 107 0 242 7
320 6 74 15 190 19 257 5 66 11 125 14 130 5 8 25 113 48 253 5 30 18 93 29
140 12 47 25 103 29 125 5 22 20 81 35 132 14 51 26 97 26 103 0 7 6 26 14 43
8 18 24 61 35 97 29 94 122 342 149 397 95 196 255 508 281 547 18 28 41 65
50 82 9 17 27 44 39 60 13 16 54 76 92 134 191 292 542 682 827 920 16 14 56
48 89 75 55 47 120 98 204 159 19 14 80 56 135 92 55 37 117 79 138 93 21 14
45 31 55 36 10 6 65 38 122 72 58 34 123 70 145 81 80 40 192 95 285 138 52
25 109 51 125 59 17 8 55 24 85 34 30 11 80 29 110 41 30 11 84 30 120 41 36
12 81 27 100 34 48 17 148 46 310 88 212 55 479 100 695 117 83 6 157 13 165
15 38 7 557 4 655 -5z m-4987 -5960 c214 -219 260 -263 322 -306 36 -25 88
-63 115 -85 47 -38 179 -131 217 -154 9 -5 57 -38 107 -73 49 -34 97 -65 107
-69 9 -3 40 -22 68 -41 28 -19 87 -52 131 -74 44 -22 94 -52 110 -67 30 -26
243 -135 320 -164 22 -8 105 -42 185 -75 212 -88 353 -140 409 -151 28 -5 43
-18 78 -69 24 -35 43 -68 43 -73 0 -11 117 -238 133 -258 13 -16 33 -48 45
-76 5 -11 45 -60 88 -108 44 -49 91 -105 107 -125 71 -95 141 -149 279 -219
40 -20 90 -51 110 -69 37 -33 121 -76 223 -115 58 -21 283 -67 400 -80 44 -5
136 -16 205 -25 131 -17 353 -14 390 6 10 6 39 10 63 10 27 0 49 6 57 15 7 8
21 15 32 15 21 0 52 13 233 100 66 31 134 69 151 83 18 15 36 27 42 27 5 0 15
7 22 15 7 8 21 15 30 15 20 0 184 158 239 230 19 25 51 63 71 85 47 51 110
156 110 184 0 52 87 166 133 175 19 4 127 8 537 21 30 1 99 7 152 14 54 7 122
14 150 15 29 2 71 8 93 14 22 7 63 12 90 12 44 0 113 16 225 49 19 6 49 11 67
11 18 0 47 6 65 14 18 8 69 22 113 31 44 9 96 23 115 30 41 15 102 31 180 49
30 7 62 15 70 19 8 3 52 16 98 27 45 11 133 42 195 69 61 27 153 59 202 71 50
12 101 28 115 36 14 8 72 29 130 48 58 19 128 46 156 59 28 14 77 33 110 42
32 10 66 24 75 31 8 8 20 14 26 14 5 0 49 20 96 45 48 25 92 45 99 45 6 0 19
6 27 13 9 7 36 22 61 32 25 11 71 38 103 62 31 24 62 43 68 43 6 0 32 18 57
41 26 23 67 52 92 65 96 52 126 71 154 97 16 15 44 31 62 36 51 14 90 47 113
94 11 23 42 65 68 93 26 29 54 59 61 68 18 23 46 16 50 -11 2 -12 -6 -48 -17
-80 -11 -32 -34 -105 -52 -163 -36 -121 -87 -270 -119 -350 -12 -30 -24 -64
-27 -75 -3 -11 -19 -51 -35 -90 -17 -38 -38 -88 -47 -109 -27 -65 -200 -409
-214 -425 -8 -9 -33 -50 -57 -91 -175 -301 -367 -550 -681 -885 -65 -70 -246
-236 -359 -331 -371 -310 -832 -588 -1265 -764 -44 -18 -89 -36 -100 -41 -11
-5 -33 -13 -50 -18 -16 -5 -55 -19 -85 -31 -30 -11 -84 -30 -120 -41 -36 -12
-81 -27 -100 -34 -19 -7 -66 -20 -105 -29 -38 -9 -90 -23 -115 -30 -113 -35
-420 -92 -640 -120 -108 -14 -287 -24 -550 -31 -125 -3 -495 18 -588 34 -31 5
-111 17 -177 26 -66 9 -140 21 -165 27 -25 5 -65 13 -90 18 -25 5 -81 19 -125
30 -44 12 -91 24 -105 27 -105 20 -546 172 -675 233 -22 10 -80 37 -130 60
-602 276 -1145 679 -1625 1205 -30 34 -68 78 -85 99 -16 22 -57 72 -90 111
-34 40 -88 110 -120 155 -33 46 -76 100 -96 121 -38 40 -139 182 -139 195 0 4
-6 15 -14 23 -7 9 -28 43 -46 76 -18 33 -42 74 -54 90 -23 32 -134 252 -186
370 -17 39 -35 77 -39 85 -7 13 -34 80 -98 245 -8 22 -20 51 -25 65 -22 55
-78 231 -108 340 -53 189 -59 213 -75 263 -16 52 -19 99 -7 111 4 5 18 -7 32
-26 14 -18 67 -76 118 -128z m4547 -2269 c-6 -5 -20 -12 -32 -16 -19 -5 -23
-2 -23 14 0 13 8 21 23 23 26 5 45 -8 32 -21z"/>
<path d="M11616 17575 c-9 -14 -12 -25 -6 -25 5 0 10 5 10 10 0 6 7 10 15 10
8 0 15 7 15 15 0 23 -16 18 -34 -10z"/>
<path d="M11250 17515 c0 -9 6 -12 15 -9 8 4 12 10 9 15 -8 14 -24 10 -24 -6z"/>
<path d="M11534 17498 c-86 -82 -95 -93 -83 -97 7 -2 15 1 17 8 2 6 9 11 16
11 13 0 39 28 49 53 3 9 11 17 17 17 5 0 10 5 10 10 0 13 -12 12 -26 -2z"/>
<path d="M5725 17460 c-16 -4 -55 -8 -86 -9 -38 -1 -70 -9 -102 -25 -25 -14
-63 -28 -84 -32 -21 -3 -45 -12 -53 -19 -8 -8 -27 -16 -41 -20 -14 -3 -38 -17
-54 -31 -15 -13 -33 -24 -40 -24 -6 0 -22 -11 -35 -25 -13 -14 -28 -25 -34
-25 -27 0 -206 -214 -206 -245 0 -10 -18 -40 -40 -68 -31 -38 -40 -58 -38 -83
1 -21 -5 -41 -17 -55 -19 -20 -20 -37 -20 -253 0 -127 -4 -237 -9 -244 -11
-17 -14 -102 -5 -108 4 -2 9 13 11 33 2 21 7 38 12 38 18 0 26 -59 15 -105
-10 -39 -9 -51 5 -79 14 -25 20 -30 31 -21 8 7 15 7 19 1 4 -5 0 -14 -8 -18
-13 -7 -13 -14 -3 -45 7 -19 18 -42 24 -49 6 -8 22 -38 37 -66 14 -29 31 -53
36 -53 6 0 10 -6 10 -13 0 -7 13 -23 28 -34 26 -19 29 -20 39 -4 6 9 14 13 18
9 4 -4 2 -15 -5 -23 -19 -23 18 -71 52 -67 14 2 31 -4 38 -12 7 -9 18 -16 25
-16 6 0 25 -13 41 -30 16 -16 37 -30 47 -30 25 0 21 -28 -5 -33 -22 -3 -22 -4
-4 -12 13 -6 21 -5 24 3 5 17 57 15 72 -3 7 -8 23 -15 36 -15 12 0 29 -7 38
-15 8 -8 28 -15 45 -15 16 0 32 -4 35 -9 3 -4 23 -11 44 -15 22 -3 52 -13 68
-21 16 -8 37 -15 46 -15 25 0 31 -17 11 -30 -16 -10 -16 -11 2 -4 27 11 126 7
202 -9 58 -12 84 -11 233 7 19 2 48 9 63 15 16 6 41 11 57 11 15 0 41 7 56 15
16 8 39 15 52 15 20 0 39 7 82 32 8 4 22 11 30 14 8 3 22 10 30 14 8 5 42 23
75 40 33 16 89 56 125 89 37 33 80 62 98 65 20 5 37 18 46 34 21 38 64 128 93
192 13 30 28 63 34 72 5 10 9 36 9 58 0 22 7 52 16 65 11 17 14 37 10 67 -20
155 -26 250 -15 270 9 16 6 38 -17 107 -15 47 -34 93 -41 102 -7 8 -13 25 -13
37 0 11 -4 24 -10 27 -5 3 -10 14 -10 24 0 10 -9 26 -20 36 -11 10 -18 21 -15
25 2 4 -9 25 -25 46 -16 21 -30 44 -30 50 0 6 -7 17 -15 24 -8 7 -15 20 -15
30 0 10 -12 26 -27 36 -45 28 -121 100 -182 171 -11 12 -32 25 -48 29 -15 4
-41 17 -58 29 -16 12 -40 25 -52 29 -13 4 -23 12 -23 17 0 5 -9 9 -20 9 -11 0
-46 14 -77 31 -32 18 -77 34 -101 36 -24 2 -59 10 -79 18 -19 8 -49 15 -65 15
-17 0 -44 6 -61 14 -18 8 -84 19 -148 25 -126 12 -121 12 -164 1z m255 -110
c19 -6 53 -13 75 -16 46 -6 135 -33 152 -46 6 -5 24 -13 40 -18 102 -32 246
-96 305 -137 39 -26 80 -55 93 -63 27 -18 193 -216 208 -247 6 -13 14 -23 18
-23 12 0 47 -84 75 -180 14 -47 32 -107 40 -135 18 -59 21 -228 5 -268 -6 -16
-11 -41 -11 -56 0 -16 -6 -34 -14 -40 -7 -6 -16 -33 -18 -59 -8 -76 -45 -140
-131 -226 -43 -43 -87 -91 -96 -107 -15 -24 -82 -79 -97 -79 -4 0 -118 -52
-155 -70 -9 -5 -34 -12 -55 -15 -22 -4 -59 -13 -84 -20 -25 -7 -74 -16 -110
-20 -35 -3 -72 -11 -83 -16 -65 -35 -246 -29 -335 12 -53 24 -145 48 -212 56
-56 6 -238 93 -308 147 -55 43 -154 163 -209 255 -18 29 -33 56 -33 59 0 3
-14 34 -31 69 -17 36 -35 91 -39 126 -4 34 -13 75 -19 90 -12 32 -14 162 -2
192 4 10 3 37 -2 58 -8 31 -7 45 5 66 9 14 23 68 33 120 9 52 27 116 40 143
29 60 80 125 104 133 10 3 26 26 36 51 25 65 101 118 305 212 118 54 153 61
320 61 85 1 171 -4 190 -9z"/>
<path d="M5815 17018 c-16 -4 -68 -11 -115 -14 -63 -5 -101 -14 -148 -35 -34
-16 -65 -29 -68 -29 -15 0 -126 -84 -172 -131 -68 -69 -96 -125 -111 -219 -17
-112 -7 -323 18 -354 4 -6 11 -26 14 -44 15 -76 92 -202 172 -277 60 -57 194
-145 221 -145 9 0 28 -6 42 -14 48 -24 180 -56 236 -56 30 0 66 -4 79 -9 18
-7 44 -3 101 15 42 13 85 24 94 24 22 0 157 64 167 79 4 7 23 22 43 35 50 33
142 122 142 139 0 8 14 34 32 58 l32 44 -2 155 c-1 150 -2 158 -32 222 -16 37
-30 72 -30 77 0 20 -71 129 -124 191 -96 113 -114 126 -218 166 -54 20 -104
44 -110 51 -20 24 -71 47 -123 54 -27 4 -63 11 -80 16 -17 6 -43 6 -60 1z
m112 -123 c19 -8 43 -15 52 -15 36 0 305 -147 324 -178 5 -7 28 -33 53 -58 47
-49 71 -95 96 -189 41 -153 46 -194 35 -306 -8 -82 -17 -106 -64 -169 -62 -84
-187 -159 -287 -174 -27 -4 -64 -15 -83 -24 -27 -13 -39 -14 -66 -4 -18 6 -49
9 -70 5 -21 -3 -64 0 -95 7 -84 18 -240 78 -265 101 -12 11 -45 36 -73 54 -29
19 -61 49 -73 67 -12 18 -39 58 -61 88 -22 30 -40 66 -40 78 0 13 -6 38 -14
55 -31 68 -36 140 -24 359 3 49 9 64 48 114 55 70 110 112 215 164 l80 39 138
0 c101 1 147 -3 174 -14z"/>
<path d="M5658 16740 c-21 -4 -46 -14 -56 -23 -10 -10 -23 -17 -29 -17 -19 0
-105 -93 -121 -130 -18 -42 -26 -169 -12 -204 18 -48 29 -28 23 42 -4 55 -2
70 11 81 9 7 16 21 16 31 0 9 9 25 20 35 11 10 20 24 20 32 0 7 23 29 50 49
28 20 50 39 50 43 0 4 20 18 45 30 25 12 43 27 40 32 -4 5 -9 8 -13 8 -4 -1
-24 -5 -44 -9z"/>
<path d="M5790 16740 c0 -5 25 -10 56 -10 34 0 53 4 49 10 -3 6 -28 10 -56 10
-27 0 -49 -4 -49 -10z"/>
<path d="M6360 16337 c0 -30 4 -46 10 -42 13 8 13 55 0 75 -7 11 -10 2 -10
-33z"/>
<path d="M5458 16304 c-7 -7 3 -53 13 -60 5 -3 9 8 9 25 0 28 -11 46 -22 35z"/>
<path d="M11368 17363 c-7 -10 -29 -26 -48 -35 l-35 -17 35 0 c29 -1 39 5 58
34 22 35 14 50 -10 18z"/>
<path d="M10820 17280 c0 -5 6 -10 14 -10 8 0 18 5 21 10 3 6 -3 10 -14 10
-12 0 -21 -4 -21 -10z"/>
<path d="M11213 17256 c-32 -18 -63 -47 -63 -59 0 -6 8 -3 18 6 10 10 26 17
36 17 9 0 19 7 22 15 4 8 12 15 20 15 8 0 14 5 14 10 0 13 -19 11 -47 -4z"/>
<path d="M11093 17168 c2 -7 10 -13 17 -13 7 0 15 6 18 13 2 7 -5 12 -18 12
-13 0 -20 -5 -17 -12z"/>
<path d="M10981 17094 c-22 -22 -23 -24 -5 -24 23 0 44 18 44 37 0 18 -11 15
-39 -13z"/>
<path d="M10115 16950 c-3 -5 1 -10 9 -10 8 0 18 5 21 10 3 6 -1 10 -9 10 -8
0 -18 -4 -21 -10z"/>
<path d="M9960 16890 c0 -5 7 -10 15 -10 8 0 15 5 15 10 0 6 -7 10 -15 10 -8
0 -15 -4 -15 -10z"/>
<path d="M9480 16740 c0 -5 9 -10 20 -10 11 0 20 5 20 10 0 6 -9 10 -20 10
-11 0 -20 -4 -20 -10z"/>
<path d="M7937 16634 c-4 -4 -7 -18 -7 -31 0 -16 6 -23 20 -23 13 0 20 7 20
20 0 11 0 23 1 28 0 10 -25 14 -34 6z"/>
<path d="M8090 16530 c0 -5 7 -10 15 -10 8 0 15 5 15 10 0 6 -7 10 -15 10 -8
0 -15 -4 -15 -10z"/>
<path d="M9496 16457 c-18 -13 -18 -14 3 -20 28 -7 63 3 58 17 -5 17 -40 19
-61 3z"/>
<path d="M7112 16430 c0 -19 2 -27 5 -17 2 9 2 25 0 35 -3 9 -5 1 -5 -18z"/>
<path d="M9413 16430 c-33 -13 -28 -20 12 -20 24 0 35 5 35 15 0 17 -14 18
-47 5z"/>
<path d="M7113 16325 c0 -27 2 -38 4 -22 2 15 2 37 0 50 -2 12 -4 0 -4 -28z"/>
<path d="M9150 16355 c-8 -10 -30 -15 -65 -15 -35 0 -57 -5 -65 -15 -8 -10
-30 -15 -65 -15 -39 0 -56 -5 -70 -20 -24 -27 -15 -34 21 -15 16 8 52 15 81
15 28 0 54 4 57 9 3 5 30 12 60 15 33 5 57 13 60 22 3 9 20 14 46 14 22 0 40
5 40 10 0 16 -86 12 -100 -5z"/>
<path d="M8775 16270 c-15 -7 -10 -9 23 -9 23 -1 42 4 42 9 0 12 -37 12 -65 0z"/>
<path d="M8670 16240 c-34 -7 -34 -7 13 -9 30 0 46 3 42 9 -3 6 -9 9 -13 9 -4
-1 -23 -5 -42 -9z"/>
<path d="M8470 16210 c0 -5 23 -10 50 -10 28 0 50 5 50 10 0 6 -22 10 -50 10
-27 0 -50 -4 -50 -10z"/>
<path d="M8375 16200 c-11 -5 -43 -9 -72 -9 -28 -1 -54 -5 -57 -10 -3 -5 -35
-6 -72 -3 -65 5 -66 5 -62 -19 3 -23 6 -24 58 -21 30 2 58 9 61 14 4 6 44 12
89 14 89 5 100 8 100 30 0 16 -15 17 -45 4z"/>
<path d="M7555 16150 c-4 -6 5 -10 19 -10 14 0 26 5 26 10 0 6 -9 10 -19 10
-11 0 -23 -4 -26 -10z"/>
<path d="M7640 16150 c0 -5 7 -10 15 -10 8 0 15 5 15 10 0 6 -7 10 -15 10 -8
0 -15 -4 -15 -10z"/>
<path d="M7925 16150 c-4 -6 8 -10 30 -10 22 0 34 4 30 10 -3 6 -17 10 -30 10
-13 0 -27 -4 -30 -10z"/>
<path d="M5447 15524 c-14 -14 -6 -24 19 -24 16 0 24 5 22 13 -5 14 -31 21
-41 11z"/>
<path d="M5530 15480 c20 -13 40 -13 40 0 0 6 -12 10 -27 10 -22 0 -25 -2 -13
-10z"/>
<path d="M6930 15430 c0 -5 9 -10 20 -10 11 0 20 5 20 10 0 6 -9 10 -20 10
-11 0 -20 -4 -20 -10z"/>
<path d="M5885 15400 c-18 -8 -17 -9 8 -9 15 -1 27 4 27 9 0 12 -8 12 -35 0z"/>
<path d="M5555 15280 c3 -5 26 -10 51 -10 28 0 43 4 39 10 -3 6 -26 10 -51 10
-28 0 -43 -4 -39 -10z"/>
<path d="M6575 15250 c-4 -6 5 -10 20 -10 15 0 24 4 20 10 -3 6 -12 10 -20 10
-8 0 -17 -4 -20 -10z"/>
<path d="M9776 16181 c-7 -11 3 -41 14 -41 11 0 21 30 14 41 -3 5 -9 9 -14 9
-5 0 -11 -4 -14 -9z"/>
<path d="M4235 16058 c3 -13 9 -34 12 -48 4 -14 12 -29 18 -35 7 -5 25 -32 40
-60 15 -27 33 -57 41 -66 8 -8 14 -28 14 -43 0 -19 8 -32 29 -44 33 -19 54
-56 46 -81 -3 -10 12 -35 40 -66 25 -27 45 -55 45 -62 0 -7 11 -15 25 -19 16
-4 25 -13 25 -25 0 -14 9 -21 31 -26 17 -3 37 -16 45 -29 17 -26 44 -22 44 7
0 10 -29 49 -65 86 -36 37 -65 70 -65 74 0 3 -11 16 -25 29 -14 13 -25 29 -25
35 0 6 -12 22 -26 36 -14 13 -36 44 -49 69 -12 25 -39 76 -59 114 -20 39 -36
76 -36 83 0 7 -4 13 -9 13 -5 0 -13 9 -16 20 -9 29 -45 60 -68 60 -15 0 -18
-5 -12 -22z"/>
<path d="M4836 15311 c-3 -4 18 -24 46 -42 77 -51 99 -62 106 -54 9 9 -58 65
-79 65 -9 0 -24 9 -34 20 -20 22 -31 25 -39 11z"/>
<path d="M5610 14895 c0 -9 5 -15 11 -13 6 2 11 8 11 13 0 5 -5 11 -11 13 -6
2 -11 -4 -11 -13z"/>
<path d="M5657 14904 c-8 -8 1 -24 14 -24 5 0 9 7 9 15 0 15 -12 20 -23 9z"/>
</g>
</svg>
