<?xml version="1.0" standalone="no"?>
<!DOCTYPE svg PUBLIC "-//W3C//DTD SVG 20010904//EN"
 "http://www.w3.org/TR/2001/REC-SVG-20010904/DTD/svg10.dtd">
<svg version="1.0" xmlns="http://www.w3.org/2000/svg"
 width="853.000000pt" height="841.000000pt" viewBox="0 0 853.000000 841.000000"
 preserveAspectRatio="xMidYMid meet">
<metadata>
Created by potrace 1.10, written by Peter Selinger 2001-2011
</metadata>
<g transform="translate(0.000000,841.000000) scale(0.100000,-0.100000)"
fill="#000000" stroke="none">
<path d="M2071 7860 c-468 -65 -907 -340 -1164 -728 -107 -161 -203 -395 -248
-598 -30 -141 -35 -446 -9 -589 57 -318 181 -580 393 -830 242 -285 630 -500
1007 -559 213 -33 378 -29 587 13 565 116 1037 518 1227 1046 37 104 66 215
66 255 0 19 7 57 15 84 22 72 29 253 16 381 -64 588 -386 1072 -891 1338 -169
89 -310 140 -485 173 -94 19 -419 27 -514 14z m443 -36 c378 -59 696 -221 952
-485 185 -192 300 -381 383 -631 57 -172 72 -263 78 -483 l5 -200 -60 -50
c-93 -76 -327 -214 -340 -200 -4 3 0 10 7 14 7 5 11 14 7 20 -4 6 0 21 8 33
31 48 49 284 23 316 -5 7 -7 15 -4 19 4 3 2 12 -4 20 -6 7 -8 13 -5 13 4 0 0
10 -8 22 -9 12 -16 32 -16 45 0 31 -20 73 -52 107 -16 16 -28 34 -28 39 0 6
-17 28 -37 50 -79 82 -114 117 -119 117 -3 0 -17 14 -31 30 -13 17 -30 30 -37
30 -7 0 -28 12 -47 26 -43 32 -96 55 -113 48 -7 -3 -21 2 -30 11 -14 14 -36
16 -163 11 -158 -5 -227 -17 -256 -44 -11 -9 -27 -17 -36 -18 -22 -1 -52 -14
-80 -36 -13 -10 -32 -18 -43 -18 -10 0 -21 -7 -24 -15 -4 -8 -14 -15 -23 -15
-25 -1 -62 -36 -55 -53 6 -18 -55 -42 -98 -39 -16 1 -28 -2 -28 -7 0 -5 -10
-11 -22 -15 -29 -7 -80 -54 -73 -66 9 -14 -33 -90 -50 -90 -7 0 -16 -8 -19
-18 -4 -10 -20 -34 -36 -52 -17 -19 -30 -40 -30 -47 0 -8 -7 -16 -15 -19 -8
-3 -23 -20 -33 -37 -10 -18 -34 -49 -52 -69 -28 -32 -36 -35 -57 -27 -21 8
-26 6 -30 -11 -3 -11 -12 -20 -19 -20 -8 0 -14 -4 -14 -10 0 -5 -6 -10 -14
-10 -7 0 -16 -9 -19 -20 -3 -11 -13 -23 -24 -27 -59 -22 -180 -163 -213 -250
l-18 -48 -43 4 c-58 4 -256 73 -353 123 -195 98 -349 215 -412 311 l-34 52 4
125 c19 529 301 1020 752 1308 191 122 439 212 664 241 111 14 326 12 434 -5z
m-1828 -1758 c3 -7 53 -56 112 -107 149 -132 142 -124 142 -169 0 -22 -2 -40
-5 -40 -25 0 -93 52 -157 118 -92 97 -104 115 -111 170 -5 40 7 58 19 28z
m1159 -26 c3 -5 4 -10 1 -10 -3 0 -8 5 -11 10 -3 6 -4 10 -1 10 3 0 8 -4 11
-10z m-1045 -245 c70 -64 233 -179 340 -238 36 -20 121 -58 190 -86 l125 -50
45 -79 c58 -102 132 -187 189 -218 25 -14 60 -33 76 -44 47 -30 169 -52 291
-54 l112 -1 96 49 c106 54 186 129 225 212 11 24 29 48 40 54 11 5 57 10 103
10 184 0 404 45 668 137 203 71 307 119 408 187 45 31 86 56 89 56 4 0 24 19
44 43 20 23 40 39 44 35 11 -11 -60 -221 -111 -328 -199 -418 -587 -738 -1039
-858 -260 -69 -562 -73 -807 -11 -380 96 -694 309 -957 649 -111 144 -244 432
-267 580 -9 53 -11 54 96 -45z m1305 -44 c77 -35 103 -55 116 -88 5 -13 15
-23 24 -23 20 0 51 -64 63 -130 34 -187 -49 -298 -247 -332 -62 -10 -79 -10
-143 7 -139 35 -182 67 -239 175 -33 63 -34 202 -2 273 12 26 26 47 32 47 5 0
12 8 15 18 6 19 47 47 111 75 64 28 182 19 270 -22z"/>
<path d="M1899 5669 c-55 -8 -108 -41 -138 -84 -24 -36 -29 -122 -10 -186 25
-82 103 -141 209 -158 63 -10 124 6 176 45 46 36 64 72 64 132 0 94 -54 177
-144 223 -63 32 -98 38 -157 28z m132 -56 c61 -32 73 -51 88 -140 12 -76 0
-124 -35 -148 -14 -9 -35 -26 -46 -37 -46 -46 -178 -13 -237 59 -48 58 -60
191 -21 238 6 7 30 23 53 34 60 30 130 28 198 -6z"/>
</g>
</svg>
