<?xml version="1.0" standalone="no"?>
<!DOCTYPE svg PUBLIC "-//W3C//DTD SVG 20010904//EN"
 "http://www.w3.org/TR/2001/REC-SVG-20010904/DTD/svg10.dtd">
<svg version="1.0" xmlns="http://www.w3.org/2000/svg"
 width="300.000000pt" height="296.000000pt" viewBox="0 0 300.000000 296.000000"
 preserveAspectRatio="xMidYMid meet">
<metadata>
Created by potrace 1.10, written by Peter Selinger 2001-2011
</metadata>
<g transform="translate(0.000000,296.000000) scale(0.100000,-0.100000)"
fill="#000000" stroke="none">
<path d="M1310 2580 c-461 -98 -794 -442 -875 -904 -62 -356 64 -732 331 -987
257 -245 628 -358 965 -295 541 101 913 548 911 1093 -2 291 -110 558 -311
766 -171 177 -382 291 -615 332 -119 20 -299 18 -406 -5z m440 -24 c229 -55
410 -156 566 -318 87 -90 143 -172 201 -294 67 -141 94 -260 100 -434 l5 -145
-60 -47 c-33 -27 -62 -48 -66 -48 -18 0 -105 -63 -99 -72 3 -7 1 -8 -5 -4 -6
4 -53 -11 -104 -33 -66 -28 -86 -40 -72 -45 10 -3 6 -4 -10 -2 -16 2 -50 -2
-75 -10 -74 -21 -219 -44 -285 -44 -33 0 -68 -5 -76 -10 -21 -13 120 -3 235
18 50 8 104 16 122 16 17 1 29 4 26 9 -2 4 -2 7 1 7 2 0 12 3 22 7 11 4 15 3
11 -4 -5 -8 1 -9 20 -4 16 5 27 14 25 20 -2 9 5 10 19 6 15 -5 19 -4 14 5 -5
9 -1 10 16 5 20 -5 21 -4 9 5 -12 10 -11 11 8 7 14 -3 20 -1 16 5 -4 6 -1 9 7
6 8 -3 20 2 27 11 8 9 11 11 7 4 -4 -9 3 -8 27 2 18 8 32 19 30 25 -1 6 2 9 8
5 9 -6 120 50 120 61 0 3 -6 2 -12 -2 -7 -4 -10 -3 -5 1 9 11 47 14 47 4 0 -8
-56 -55 -123 -102 -26 -18 -45 -36 -41 -39 3 -3 -3 -5 -13 -5 -10 1 -17 -3
-16 -10 2 -8 -4 -10 -14 -6 -11 4 -14 3 -9 -5 4 -8 2 -10 -8 -6 -8 3 -28 -2
-45 -10 -17 -9 -34 -17 -38 -17 -13 -2 -25 -6 -103 -32 -41 -13 -91 -29 -110
-35 -67 -21 -185 -40 -283 -47 -54 -4 -96 -10 -93 -12 7 -8 -28 -40 -38 -35
-5 3 -7 -2 -3 -11 9 -24 -61 -90 -134 -125 -46 -22 -85 -32 -141 -37 -82 -7
-164 8 -152 27 4 7 3 8 -4 4 -13 -8 -56 17 -47 26 3 3 -1 8 -10 12 -11 4 -14
2 -9 -7 4 -6 -9 4 -29 25 -20 20 -52 65 -71 100 -20 34 -36 59 -36 55 0 -4
-10 1 -22 13 -12 11 -31 20 -43 20 -30 0 -173 75 -280 147 -97 65 -205 172
-205 203 0 10 -3 27 -7 37 -4 10 31 -17 77 -59 93 -87 238 -169 367 -208 106
-32 129 -27 162 37 37 70 47 80 110 121 51 33 57 34 155 35 122 1 166 -15 239
-89 42 -43 97 -135 97 -163 0 -15 19 -24 64 -28 28 -4 38 -2 31 5 -5 6 -26 12
-45 14 -31 3 -36 8 -51 49 -37 105 -130 197 -220 219 -25 6 -84 12 -131 12
-87 2 -132 -10 -177 -44 -35 -27 -99 -116 -106 -149 -7 -32 -5 -32 -115 -2
-160 44 -377 180 -436 275 -29 45 -30 90 -9 231 35 236 139 442 304 608 175
174 385 276 646 313 61 9 282 -3 345 -18z m-1140 -1403 c96 -68 162 -106 264
-148 94 -39 101 -44 125 -88 65 -119 147 -180 275 -204 45 -9 104 -13 133 -10
99 10 227 100 255 180 12 32 20 34 150 41 53 3 143 17 200 31 110 28 309 95
371 126 67 35 172 107 185 128 29 48 29 15 1 -66 -135 -385 -428 -643 -820
-723 -542 -111 -1092 224 -1263 768 -14 46 -26 86 -26 90 0 3 21 -14 48 -40
26 -25 72 -63 102 -85z"/>
<path d="M1203 1219 c-85 -42 -133 -122 -133 -221 0 -71 55 -159 120 -193 43
-22 151 -45 168 -36 8 5 23 6 33 4 11 -3 19 0 19 6 0 7 4 10 9 7 5 -3 14 1 21
10 7 8 19 13 26 10 7 -3 15 2 18 10 3 8 11 13 18 12 7 -2 12 3 10 10 -1 6 2
12 8 12 5 0 19 18 30 40 41 80 15 206 -56 272 -73 68 -214 96 -291 57z m192
-26 c72 -26 139 -95 154 -161 38 -157 -113 -269 -294 -217 -181 52 -213 294
-50 379 40 21 129 20 190 -1z"/>
<path d="M1220 1119 c-41 -25 -53 -42 -61 -88 -20 -107 86 -206 199 -185 24 5
51 21 76 46 36 35 38 42 34 82 -8 64 -41 112 -99 141 -59 31 -103 32 -149 4z
m165 -43 c41 -32 55 -61 55 -115 0 -106 -164 -131 -242 -37 -40 50 -32 137 16
167 45 29 122 22 171 -15z"/>
<path d="M1226 1051 c-10 -11 -16 -26 -13 -33 4 -8 8 -5 12 10 4 12 14 22 21
22 8 0 14 5 14 10 0 16 -15 12 -34 -9z"/>
<path d="M1858 1033 c12 -2 30 -2 40 0 9 3 -1 5 -23 4 -22 0 -30 -2 -17 -4z"/>
<path d="M1582 980 c0 -19 2 -27 5 -17 2 9 2 25 0 35 -3 9 -5 1 -5 -18z"/>
<path d="M937 924 c-6 -6 44 -85 76 -121 31 -35 42 -27 12 8 -14 18 -35 49
-45 70 -21 39 -33 52 -43 43z"/>
<path d="M2090 920 c0 -5 7 -10 15 -10 8 0 15 5 15 10 0 6 -7 10 -15 10 -8 0
-15 -4 -15 -10z"/>
</g>
</svg>
